<svg width="23" height="24" viewBox="0 0 23 24" fill="none" xmlns="http://www.w3.org/2000/svg">
<path d="M13 2C13 1.17157 12.3284 0.5 11.5 0.5C10.6716 0.5 9.99999 1.17157 9.99999 2H13ZM10.4393 23.0607C11.0251 23.6464 11.9749 23.6464 12.5607 23.0607L22.1066 13.5147C22.6924 12.9289 22.6924 11.9792 22.1066 11.3934C21.5208 10.8076 20.5711 10.8076 19.9853 11.3934L11.5 19.8787L3.01469 11.3934C2.42889 10.8076 1.47919 10.8076 0.893391 11.3934C0.307591 11.9792 0.307591 12.9289 0.893391 13.5147L10.4393 23.0607ZM9.99999 2V22H13V2H9.99999Z" fill="white"/>
</svg>
