<svg width="24" height="14" viewBox="0 0 24 14" fill="none" xmlns="http://www.w3.org/2000/svg">
<path d="M10.5 3.41418C10.5 4.24261 11.1716 4.91418 12 4.91418C12.8284 4.91418 13.5 4.24261 13.5 3.41418H10.5ZM13.0607 1.35352C12.4749 0.767738 11.5251 0.767738 10.9393 1.35352L1.3934 10.8995C0.807612 11.4853 0.807612 12.435 1.3934 13.0208C1.97918 13.6066 2.92893 13.6066 3.51472 13.0208L12 4.5355L20.4853 13.0208C21.0711 13.6066 22.0208 13.6066 22.6066 13.0208C23.1924 12.435 23.1924 11.4853 22.6066 10.8995L13.0607 1.35352ZM13.5 3.41418V2.41418H10.5V3.41418H13.5Z" fill="#131425"/>
</svg>
