<svg width="50" height="50" viewBox="0 0 50 50" fill="none" xmlns="http://www.w3.org/2000/svg">
<rect width="50" height="50" rx="25" fill="#D21753"/>
<path d="M12 15.4634C12 14.6268 12.2928 13.9366 12.8784 13.3929C13.464 12.8491 14.2252 12.5773 15.1622 12.5773C16.0824 12.5773 16.8269 12.845 17.3958 13.3804C17.9813 13.9325 18.2741 14.6519 18.2741 15.5387C18.2741 16.3417 17.9897 17.011 17.4208 17.5464C16.8353 18.0985 16.0656 18.3746 15.112 18.3746H15.0869C14.1667 18.3746 13.4221 18.0985 12.8533 17.5464C12.2844 16.9943 12 16.2999 12 15.4634ZM12.3263 37.4228V20.6584H17.8977V37.4228H12.3263ZM20.9846 37.4228H26.556V28.0618C26.556 27.4762 26.6229 27.0245 26.7568 26.7066C26.991 26.1378 27.3465 25.6567 27.8234 25.2636C28.3002 24.8704 28.8983 24.6738 29.6178 24.6738C31.4916 24.6738 32.4286 25.937 32.4286 28.4634V37.4228H38V27.8109C38 25.3347 37.4144 23.4566 36.2432 22.1767C35.0721 20.8968 33.5245 20.2568 31.6004 20.2568C29.4421 20.2568 27.7606 21.1854 26.556 23.0425V23.0927H26.5309L26.556 23.0425V20.6584H20.9846C21.018 21.1937 21.0347 22.8585 21.0347 25.6526C21.0347 28.4466 21.018 32.37 20.9846 37.4228Z" fill="white"/>
</svg>
